<svg width="20" height="20" viewBox="0 0 20 20" fill="none" xmlns="http://www.w3.org/2000/svg">
<path d="M13.4917 1.66675H6.50841C3.47508 1.66675 1.66675 3.47508 1.66675 6.50841V13.4834C1.66675 16.5251 3.47508 18.3334 6.50841 18.3334H13.4834C16.5167 18.3334 18.3251 16.5251 18.3251 13.4917V6.50841C18.3334 3.47508 16.5251 1.66675 13.4917 1.66675ZM9.19175 14.7167C9.43341 14.9584 9.43341 15.3584 9.19175 15.6001C9.06675 15.7251 8.90841 15.7834 8.75008 15.7834C8.59175 15.7834 8.43341 15.7251 8.30841 15.6001L6.87508 14.1667L5.44175 15.6001C5.31675 15.7167 5.15841 15.7834 5.00008 15.7834C4.84175 15.7834 4.68341 15.7251 4.55841 15.6001C4.31675 15.3584 4.31675 14.9584 4.55841 14.7167L5.99175 13.2834L4.55841 11.8501C4.31675 11.6084 4.31675 11.2084 4.55841 10.9667C4.80008 10.7251 5.20008 10.7251 5.44175 10.9667L6.87508 12.4001L8.30841 10.9667C8.55008 10.7251 8.95008 10.7251 9.19175 10.9667C9.43341 11.2084 9.43341 11.6084 9.19175 11.8501L7.75841 13.2834L9.19175 14.7167ZM8.75008 7.34175H5.00008C4.65841 7.34175 4.37508 7.05842 4.37508 6.71675C4.37508 6.37508 4.65841 6.09175 5.00008 6.09175H8.75008C9.09175 6.09175 9.37508 6.37508 9.37508 6.71675C9.37508 7.05842 9.09175 7.34175 8.75008 7.34175ZM15.0001 15.4667H11.2501C10.9084 15.4667 10.6251 15.1834 10.6251 14.8417C10.6251 14.5001 10.9084 14.2167 11.2501 14.2167H15.0001C15.3417 14.2167 15.6251 14.5001 15.6251 14.8417C15.6251 15.1834 15.3417 15.4667 15.0001 15.4667ZM15.0001 12.3417H11.2501C10.9084 12.3417 10.6251 12.0584 10.6251 11.7167C10.6251 11.3751 10.9084 11.0917 11.2501 11.0917H15.0001C15.3417 11.0917 15.6251 11.3751 15.6251 11.7167C15.6251 12.0584 15.3417 12.3417 15.0001 12.3417ZM15.0001 7.34175H13.7667V8.59175C13.7667 8.93342 13.4834 9.21675 13.1417 9.21675C12.8001 9.21675 12.5167 8.93342 12.5167 8.59175V7.34175H11.2501C10.9084 7.34175 10.6251 7.05842 10.6251 6.71675C10.6251 6.37508 10.9084 6.09175 11.2501 6.09175H12.5167V4.84175C12.5167 4.50008 12.8001 4.21675 13.1417 4.21675C13.4834 4.21675 13.7667 4.50008 13.7667 4.84175V6.09175H15.0001C15.3417 6.09175 15.6251 6.37508 15.6251 6.71675C15.6251 7.05842 15.3417 7.34175 15.0001 7.34175Z" fill="#9CA3AF"/>
</svg>
