<svg width="20" height="20" viewBox="0 0 20 20" fill="none" xmlns="http://www.w3.org/2000/svg">
<path d="M10.0001 1.66675C5.40841 1.66675 1.66675 5.40841 1.66675 10.0001C1.66675 14.5917 5.40841 18.3334 10.0001 18.3334C14.5917 18.3334 18.3334 14.5917 18.3334 10.0001C18.3334 5.40841 14.5917 1.66675 10.0001 1.66675ZM13.3834 9.39175L10.4417 12.3334C10.3167 12.4584 10.1584 12.5167 10.0001 12.5167C9.84175 12.5167 9.68342 12.4584 9.55842 12.3334L6.61675 9.39175C6.37508 9.15008 6.37508 8.75008 6.61675 8.50842C6.85842 8.26675 7.25841 8.26675 7.50008 8.50842L10.0001 11.0084L12.5001 8.50842C12.7417 8.26675 13.1417 8.26675 13.3834 8.50842C13.6251 8.75008 13.6251 9.14175 13.3834 9.39175Z" fill="#9CA3AF"/>
</svg>
