<svg width="20" height="20" viewBox="0 0 20 20" fill="none" xmlns="http://www.w3.org/2000/svg">
<path d="M12.6244 0.0425227C10.3236 0.226167 8.32476 0.866967 6.79703 1.91413C5.20069 3.00818 4.05718 4.44216 3.3665 6.21999L3.22013 6.599L1.86164 6.61073C0.5992 6.62245 0.493997 6.62635 0.352201 6.70059C0.269868 6.74357 0.155517 6.84126 0.100629 6.9155C0.00457404 7.04444 0 7.09523 0 7.91186C0 8.90041 0.0228702 8.96684 0.38422 9.13095C0.576329 9.21691 0.626644 9.22081 1.63293 9.22081H2.67581V9.76393V10.311L1.59177 10.3227C0.567181 10.3344 0.493997 10.3383 0.343053 10.4204C0.0182962 10.5923 0 10.6587 0 11.6238C0 12.4522 0.00457404 12.4873 0.105203 12.628C0.164666 12.7101 0.288165 12.8038 0.40709 12.8507C0.590051 12.9289 0.681532 12.9328 1.84334 12.9328H3.0829L3.2247 13.3313C3.46712 14.0112 3.50829 14.1128 3.71412 14.5348C4.25386 15.6366 4.94911 16.547 5.87764 17.3637C6.71927 18.1061 7.48313 18.5749 8.58548 19.0282C11.6775 20.2981 15.4969 20.3254 18.9914 19.0985C19.6364 18.8719 19.8696 18.7117 19.9657 18.4226C20.0114 18.2858 20.0114 18.2076 19.9657 18.0631C19.9062 17.8521 19.2521 16.508 19.0463 16.1758C18.8816 15.9023 18.8313 15.8515 18.6392 15.7499C18.3785 15.6171 18.1178 15.6405 16.7273 15.9375C14.9388 16.3165 14.6735 16.3517 13.4019 16.3517C12.2767 16.3517 11.9886 16.3204 11.1515 16.1133C9.99886 15.8281 9.00629 15.2185 8.37507 14.4019C8.13265 14.0971 7.68897 13.3469 7.57919 13.0578L7.52887 12.9328H10.1224H12.7204L12.9217 12.8468C13.068 12.7804 13.1549 12.7061 13.2327 12.5811C13.3379 12.4092 13.3379 12.3818 13.3242 11.5847C13.3105 10.6665 13.283 10.5884 12.9674 10.4204C12.8073 10.3344 12.7982 10.3344 9.91652 10.3227L7.02115 10.311V9.76784V9.22081H9.87078H12.7204L12.9217 9.13095C13.0726 9.06843 13.1549 8.9981 13.2327 8.86916C13.3333 8.70114 13.3379 8.66207 13.3242 7.87279C13.3105 6.95457 13.2876 6.87642 12.9674 6.70841C12.8073 6.62245 12.789 6.62245 10.2824 6.61073C8.89194 6.60682 7.753 6.59119 7.753 6.57947C7.753 6.53258 8.15094 5.89178 8.32476 5.66515C9.09777 4.64144 10.1772 4.05143 11.8239 3.74275C12.2493 3.66461 12.4322 3.65289 13.4019 3.65289C14.7055 3.65289 15.0212 3.69196 16.8325 4.0866C18.0263 4.34448 18.3602 4.37965 18.5843 4.28196C18.8862 4.14521 19.0372 3.91858 19.6501 2.65261C20.0755 1.77346 20.08 1.5234 19.6684 1.21472C19.4351 1.0428 19.0555 0.886504 18.3556 0.683323C16.462 0.124576 14.4265 -0.102048 12.6244 0.0425227Z" fill="#9CA3AF"/>
</svg>
