<svg width="20" height="20" viewBox="0 0 20 20" fill="none" xmlns="http://www.w3.org/2000/svg">
<path d="M9.99994 14.4584C10.7501 14.4584 11.3583 13.8502 11.3583 13.1C11.3583 12.3498 10.7501 11.7417 9.99994 11.7417C9.24975 11.7417 8.6416 12.3498 8.6416 13.1C8.6416 13.8502 9.24975 14.4584 9.99994 14.4584Z" fill="#9CA3AF"/>
<path d="M15.2334 7.94175V6.90008C15.2334 4.65008 14.6917 1.66675 10.0001 1.66675C5.30841 1.66675 4.76675 4.65008 4.76675 6.90008V7.94175C2.43341 8.23341 1.66675 9.41675 1.66675 12.3251V13.8751C1.66675 17.2917 2.70841 18.3334 6.12508 18.3334H13.8751C17.2917 18.3334 18.3334 17.2917 18.3334 13.8751V12.3251C18.3334 9.41675 17.5667 8.23341 15.2334 7.94175ZM10.0001 15.6167C8.60842 15.6167 7.48341 14.4834 7.48341 13.1001C7.48341 11.7084 8.61675 10.5834 10.0001 10.5834C11.3834 10.5834 12.5167 11.7167 12.5167 13.1001C12.5167 14.4917 11.3917 15.6167 10.0001 15.6167ZM6.12508 7.86675C6.05841 7.86675 6.00008 7.86675 5.93341 7.86675V6.90008C5.93341 4.45841 6.62508 2.83341 10.0001 2.83341C13.3751 2.83341 14.0667 4.45841 14.0667 6.90008V7.87508C14.0001 7.87508 13.9417 7.87508 13.8751 7.87508H6.12508V7.86675Z" fill="#9CA3AF"/>
</svg>
