<svg width="50" height="50" viewBox="0 0 50 50" fill="none" xmlns="http://www.w3.org/2000/svg">
<path d="M40.6458 12.1876L28.2708 5.04175C26.2499 3.87508 23.7499 3.87508 21.7083 5.04175L9.35408 12.1876C7.33325 13.3542 6.08325 15.5209 6.08325 17.8751V32.1251C6.08325 34.4584 7.33325 36.6251 9.35408 37.8126L21.7291 44.9584C23.7499 46.1251 26.2499 46.1251 28.2916 44.9584L40.6666 37.8126C42.6874 36.6459 43.9374 34.4792 43.9374 32.1251V17.8751C43.9166 15.5209 42.6666 13.3751 40.6458 12.1876ZM23.4374 16.1459C23.4374 15.2917 24.1458 14.5834 24.9999 14.5834C25.8541 14.5834 26.5624 15.2917 26.5624 16.1459V27.0834C26.5624 27.9376 25.8541 28.6459 24.9999 28.6459C24.1458 28.6459 23.4374 27.9376 23.4374 27.0834V16.1459ZM26.9166 34.6459C26.8124 34.8959 26.6666 35.1251 26.4791 35.3334C26.0833 35.7292 25.5624 35.9376 24.9999 35.9376C24.7291 35.9376 24.4583 35.8751 24.2083 35.7709C23.9374 35.6667 23.7291 35.5209 23.5208 35.3334C23.3333 35.1251 23.1874 34.8959 23.0624 34.6459C22.9583 34.3959 22.9166 34.1251 22.9166 33.8542C22.9166 33.3126 23.1249 32.7709 23.5208 32.3751C23.7291 32.1876 23.9374 32.0417 24.2083 31.9376C24.9791 31.6042 25.8958 31.7917 26.4791 32.3751C26.6666 32.5834 26.8124 32.7917 26.9166 33.0626C27.0208 33.3126 27.0833 33.5834 27.0833 33.8542C27.0833 34.1251 27.0208 34.3959 26.9166 34.6459Z" fill="#3E52C1"/>
</svg>
