<svg width="40" height="40" viewBox="0 0 40 40" fill="none" xmlns="http://www.w3.org/2000/svg">
<g clip-path="url(#clip0_72_265)">
<rect width="40" height="40" rx="20" fill="#EBECEF"/>
<rect x="8" y="10" width="24" height="32" rx="2" fill="#9CA3AF"/>
<circle cx="20" cy="21" r="8" fill="#F3F4F6"/>
<path d="M21.7189 18.8125C21.6423 19.8451 20.8595 20.6875 20.0001 20.6875C19.1408 20.6875 18.3566 19.8453 18.2814 18.8125C18.2033 17.7383 18.965 16.9375 20.0001 16.9375C21.0353 16.9375 21.797 17.7578 21.7189 18.8125Z" stroke="#9CA3AF" stroke-width="0.5" stroke-linecap="round" stroke-linejoin="round"/>
<path d="M20 21.9375C18.3008 21.9375 16.5762 22.875 16.2571 24.6445C16.2186 24.8578 16.3393 25.0625 16.5625 25.0625H23.4375C23.661 25.0625 23.7817 24.8578 23.7432 24.6445C23.4239 22.875 21.6993 21.9375 20 21.9375Z" stroke="#9CA3AF" stroke-width="0.5" stroke-miterlimit="10"/>
<rect x="12" y="31" width="16" height="3" rx="0.5" fill="#EBECEF"/>
<rect x="14" y="35" width="12" height="2" rx="0.5" fill="#EBECEF"/>
</g>
<defs>
<clipPath id="clip0_72_265">
<rect width="40" height="40" rx="20" fill="white"/>
</clipPath>
</defs>
</svg>
