<?xml version="1.0" encoding="utf-8"?>
<!-- Generator: Adobe Illustrator 25.0.0, SVG Export Plug-In . SVG Version: 6.00 Build 0)  -->
<svg version="1.1" id="Calque_1" xmlns="http://www.w3.org/2000/svg" xmlns:xlink="http://www.w3.org/1999/xlink" x="0px" y="0px"
	 viewBox="0 0 1516 320" style="enable-background:new 0 0 1516 320;" xml:space="preserve">
<style type="text/css">
	.st0{fill:#00FFB3;}
</style>
<path d="M260.9,7.7c3.6,3.6,5.4,8.9,5.4,14.9V205c0,20.9-4.8,39.3-14.3,56.6c-9.5,16.7-22.7,30.4-39.3,39.9
	c-16.7,9.5-35.2,14.3-55.4,14.3s-39.3-4.8-56-14.3c-16.7-9.5-30.4-23.2-39.9-39.9c-10.1-17.3-14.9-36.4-14.9-57.2
	s4.2-39.3,13.1-56.6c8.9-16.7,21.5-30.4,37-39.9s32.8-14.3,51.9-14.3c15.5,0,29.8,3,42.9,9.5c13.1,6.6,24.4,15.5,34,26.8V22
	c0-6,1.8-11.3,6-14.9c3.6-3.6,8.9-5.4,14.3-5.4C252,1.7,257.4,3.5,260.9,7.7z M193,270c10.7-6.6,19.1-15.5,25.6-26.8
	c6-11.3,8.9-24.4,8.9-38.2c0-14.3-3-26.8-8.9-38.2c-6-11.3-14.3-20.3-25.6-26.8c-10.7-6.6-22.7-9.5-36.4-9.5
	c-13.1,0-25.6,3-36.4,9.5s-19.1,15.5-25.6,26.8c-6,11.3-9.5,23.8-9.5,38.2c0,14.3,3,26.8,9.5,38.2c6,11.3,14.9,20.3,25.6,26.8
	c10.7,6.6,22.7,9.5,36.4,9.5C169.7,279.5,182.3,276.6,193,270z"/>
<path d="M529.2,214c-3.6,3.6-7.7,4.8-13.1,4.8h-152c3,18.5,11.3,34,25.6,45.3c13.7,11.3,31,17.3,51.3,17.3c7.7,0,16.1-1.2,25-4.2
	c8.9-3,15.5-6.6,21.5-10.7c3.6-3,8.3-4.2,13.1-4.2c4.8,0,8.9,1.2,11.9,4.2c4.8,4.2,7.2,8.3,7.2,13.7c0,4.8-2.4,8.9-6.6,11.9
	c-8.9,7.2-20.3,13.1-34,17.3c-13.7,4.8-26.2,6.6-38.7,6.6c-22.1,0-41.1-4.8-59-14.3c-17.3-9.5-31-22.7-40.5-39.3
	c-9.5-16.7-14.3-35.8-14.3-57.2s4.8-40.5,13.7-57.2c8.9-16.7,22.1-29.8,38.2-39.3c16.1-9.5,35.2-14.3,55.4-14.3s38.2,4.8,53.1,13.7
	s26.2,21.5,34.6,38.2c7.7,16.1,11.9,35.2,11.9,56C534.6,206.2,532.8,210.4,529.2,214z M387.9,144.2c-11.9,10.7-19.7,25-23.2,42.9
	h132.9c-2.4-17.9-8.9-32.2-20.3-42.9c-10.7-10.7-25-16.1-42.9-16.1C415.3,128.1,399.8,133.5,387.9,144.2z"/>
<path d="M615,307c-16.1-5.4-28.6-13.1-37.6-22.1c-3.6-3.6-5.4-7.7-5.4-12.5c0-6.6,2.4-11.3,7.7-15.5c4.8-3.6,9.5-5.4,13.7-5.4
	c5.4,0,10.1,2.4,14.9,7.2c4.8,5.4,12.5,10.7,22.7,14.3c10.1,4.2,20.9,6,32.2,6c14.9,0,26.8-2.4,35.2-7.7
	c8.3-4.8,12.5-11.9,12.5-20.3c0-8.3-4.2-14.9-12.5-20.9c-8.3-5.4-22.1-10.1-41.7-13.7c-51.3-10.1-76.9-31-76.9-63.2
	c0-13.1,3.6-23.8,11.3-33.4c7.7-8.9,17.9-16.1,30.4-20.3c12.5-4.8,25.6-6.6,39.9-6.6c17.3,0,32.8,3,46.5,8.3
	c13.7,5.4,24.4,13.1,32.8,23.2c3.6,4.2,5.4,8.3,5.4,12.5c0,4.8-2.4,8.9-6.6,12.5c-3,2.4-6.6,3-11.3,3c-7.2,0-13.1-2.4-18.5-7.7
	c-6.6-6-13.7-10.7-21.5-13.1c-7.7-2.4-16.7-3.6-27.4-3.6c-12.5,0-22.1,1.8-30.4,6c-7.7,4.2-11.9,10.1-11.9,17.3
	c0,5.4,1.2,9.5,4.2,13.1c2.4,3.6,7.7,7.2,14.9,10.1c7.7,3,18.5,6,32.2,8.9c29.2,6,49.5,13.7,62,24.4c11.9,10.1,17.9,23.8,17.9,40.5
	c0,12.5-3.6,23.2-10.1,33.4c-6.6,10.1-16.7,17.9-29.2,23.8c-13.1,6-28.6,8.3-46.5,8.3C647.8,315.3,630.5,312.9,615,307z"/>
<path d="M998.4,100.7c3.6,3.6,5.4,8.9,5.4,14.9v178.2c0,6-1.8,10.7-5.4,14.3c-3.6,3.6-8.9,6-14.9,6c-6,0-10.7-1.8-14.3-6
	c-3.6-3.6-6-8.9-6-14.3v-4.2c-8.3,8.3-18.5,14.9-30.4,19.7c-11.9,4.8-24.4,7.2-37.6,7.2c-18.5,0-35.2-4.2-49.5-11.9
	c-14.9-7.7-26.2-19.7-34.6-35.2s-12.5-34-12.5-55.4v-98.4c0-6,1.8-10.7,6-14.3c3.6-3.6,8.9-6,14.3-6c6,0,10.7,1.8,14.3,6
	c3.6,3.6,6,8.9,6,14.3V214c0,21.5,6,38.2,17.3,48.9c11.3,11.3,26.8,16.7,45.9,16.7c11.3,0,21.5-2.4,30.4-6.6
	c8.9-4.8,16.1-10.7,21.5-18.5c5.4-7.7,7.7-16.1,7.7-26.2V115.6c0-6,1.8-11.3,6-14.9c3.6-3.6,8.9-5.4,14.3-5.4
	C989.4,94.7,994.8,97.1,998.4,100.7z"/>
<path d="M1215.9,99.5c7.7,4.2,11.9,9.5,11.9,16.1c0,1.8,0,3-0.6,4.2c-2.4,8.3-7.7,12.5-16.1,12.5c-1.2,0-3.6,0-6-0.6
	c-10.7-1.8-19.1-3-26.2-3c-19.1,0-34.6,4.2-46.5,13.1c-11.9,8.9-17.3,20.9-17.3,35.8v116.8c0,6.6-1.8,11.3-4.8,14.9
	c-3.6,3.6-8.3,5.4-14.9,5.4c-6.6,0-11.3-1.8-14.9-4.8c-3.6-3.6-5.4-8.3-5.4-14.9V116.2c0-6.6,1.8-11.3,5.4-14.9
	c3.6-3.6,8.3-5.4,14.9-5.4c13.1,0,19.7,6.6,19.7,20.3v7.7c7.7-9.5,17.9-16.7,29.8-22.1s24.4-7.7,37.6-7.7
	C1196.9,93,1208.2,95.3,1215.9,99.5z"/>
<path d="M1408.5,108.5c16.7,9.5,29.8,23.2,39.3,39.9c9.5,16.7,14.3,35.8,14.3,56.6v88.8c0,6-1.8,10.7-6,14.3c-3.6,3.6-8.9,6-14.3,6
	c-6,0-10.7-1.8-14.3-6c-3.6-3.6-6-8.9-6-14.3v-14.9c-9.5,11.3-20.9,20.3-34,26.8c-13.1,6.6-27.4,9.5-42.9,9.5
	c-19.1,0-36.4-4.8-51.9-14.3c-15.5-9.5-28-22.7-37-39.9c-8.9-17.3-13.1-35.8-13.1-56.6s4.8-39.3,14.3-56.6
	c9.5-16.7,22.7-30.4,39.9-39.9c16.7-9.5,35.8-14.3,56-14.3C1373.3,93.6,1391.8,98.9,1408.5,108.5z M1389.4,270
	c10.7-6.6,19.1-15.5,25.6-26.8c6-11.3,8.9-23.8,8.9-38.2c0-14.3-3-26.8-8.9-38.2c-6-11.3-14.3-20.3-25.6-26.8
	c-10.7-6.6-22.7-9.5-36.4-9.5c-13.1,0-25.6,3-36.4,9.5c-10.7,6.6-19.1,15.5-25.6,26.8c-6.6,11.3-9.5,24.4-9.5,38.2
	c0,14.3,3,26.8,9.5,38.2c6,11.3,14.9,20.3,25.6,26.8c10.7,6.6,22.7,9.5,36.4,9.5C1366.2,279.5,1378.1,276.6,1389.4,270z"/>
<path class="st0" d="M181.1,205.6c0,13.7-11.3,24.4-24.4,24.4s-24.4-11.3-24.4-24.4c0-13.7,11.3-24.4,24.4-24.4
	S181.1,191.9,181.1,205.6"/>
<path d="M1401.3,259.9l-14.3,2.4c-6,1.2-10.7,0-15.5-3s-7.2-7.7-8.3-13.1c-1.2-6,0-10.7,3-15.5c3-4.2,7.7-7.2,13.1-8.3l56-10.1
	c0,0,52.5,22.7,12.5,36.4C1420.4,258.1,1397.2,264.6,1401.3,259.9z"/>
</svg>
